<svg width="40" height="40" viewBox="0 0 40 40" fill="none" xmlns="http://www.w3.org/2000/svg">
<path d="M20.0048 36.2716C19.9072 36.2714 19.8116 36.2445 19.7284 36.1938C19.6567 36.1497 19.5964 36.0894 19.5523 36.0177L19.5465 36.0078L3.75003 16.1508C3.44489 15.6796 3.40206 15.0757 3.6465 14.5504L8.2498 5.89316C8.54742 5.4054 9.07577 5.09125 9.65729 5.0625L30.7855 5.06269C31.3503 5.09407 31.8706 5.40784 32.1672 5.90162L36.7696 14.7272C36.9908 15.2491 36.9267 15.853 36.5922 16.3288L21.8679 34.4004V34.4058H21.7766L20.4651 36.0067L20.4583 36.0179C20.411 36.0957 20.3444 36.16 20.2649 36.2044C20.1854 36.2489 20.0958 36.272 20.0048 36.2716ZM21.1201 31.9247L21.4399 32.1132L35.2402 15.2555H27.7406L21.1201 31.9247ZM18.5693 31.9424L18.8908 31.756L12.3759 15.2555H5.2415L18.5693 31.9424ZM20.0273 29.9855L25.8838 15.2555H14.1264L20.0273 29.9855ZM28.3923 13.5177H34.0723L30.914 7.31925L28.3923 13.5177ZM14.9804 13.5177H25.1997L20.0902 6.6746L14.9804 13.5177ZM6.16479 13.5177H11.6782L9.33562 7.55467L6.16479 13.5177ZM13.4916 13.4347L18.3688 6.80067H10.7408L13.4916 13.4347ZM26.6053 13.2673L29.2476 6.80067H21.8536L26.6053 13.2673Z" fill="#999999"/>
</svg>
